<svg width="250" height="250" viewBox="0 0 250 250" fill="none" xmlns="http://www.w3.org/2000/svg">
<rect width="250" height="250" fill="black"/>
<path d="M154.068 89.0722L131.226 122.577L176.404 126.131L154.068 89.0722Z" fill="white"/>
<path d="M160.101 86.9986L178.375 116.442L176.345 88.0137L160.101 86.9986Z" fill="white"/>
<path d="M182.91 97.7071L184.941 123.597L194.586 116.49L182.91 97.7071Z" fill="white"/>
<path d="M194.158 124.54L186.036 130.632L189.082 147.384L194.158 124.54Z" fill="white"/>
<path d="M157.625 171.749L180.975 137.229L185.544 160.581L157.625 171.749Z" fill="white"/>
<path d="M153.663 180.051L156.708 187.75L173.899 171.924L153.663 180.051Z" fill="white"/>
<path d="M147.891 182.725L127.388 192.977L150.896 190.542L147.891 182.725Z" fill="white"/>
<path d="M139.295 179.994L112.199 193.581L106.435 175.05L139.295 179.994Z" fill="white"/>
<path d="M99.6794 174.616L104.755 191.165L80.5918 176.942L99.6794 174.616Z" fill="white"/>
<path d="M76.7632 137.539L74.2783 171.324L96.6397 168.681L76.7632 137.539Z" fill="white"/>
<path d="M70.8553 131.875L68.6875 162.013L56.792 135.047L70.8553 131.875Z" fill="white"/>
<path d="M62.4784 100.152L56.4512 128.704L70.2521 125.69L62.4784 100.152Z" fill="white"/>
<path d="M65.8916 89.8826L75.2496 120.125L97.0854 82.48L65.8916 89.8826Z" fill="white"/>
<path d="M125.662 132.618L106.744 168.697L144.416 174.404L125.662 132.618Z" fill="white"/>
<path d="M176.558 132.115L150.191 171.792L130.792 128.904L176.558 132.115Z" fill="white"/>
<path d="M120.561 128.904L79.8799 130.934L101.708 164.955L120.561 128.904Z" fill="white"/>
<path d="M103.174 84.5536L79.8799 124.48L120.985 122.522L103.174 84.5536Z" fill="white"/>
<path d="M148.506 85.9891L126.309 119.141L108.509 81.5206L148.506 85.9891Z" fill="white"/>
<path d="M149.052 63.2605L156.186 80.557L169.879 81.4934L149.052 63.2605Z" fill="white"/>
<path d="M176.694 76.5084L176.321 78.9585L168.55 71.8953L176.694 76.5084Z" fill="white"/>
<path d="M139.351 56.7611L112.037 75.6432L149.007 79.8953L139.351 56.7611Z" fill="white"/>
<path d="M99.9355 59.5342L104.98 73.0114L128.62 56.4516L99.9355 59.5342Z" fill="white"/>
<path d="M94.3266 62.2391L72.9473 81.7606L99.2168 75.617L94.3266 62.2391Z" fill="white"/>
</svg>
